<?xml version="1.0" encoding="UTF-8" standalone="no"?>
<!-- Generator: Adobe Illustrator 18.1.1, SVG Export Plug-In . SVG Version: 6.00 Build 0)  -->

<svg
   xmlns:dc="http://purl.org/dc/elements/1.1/"
   xmlns:cc="http://creativecommons.org/ns#"
   xmlns:rdf="http://www.w3.org/1999/02/22-rdf-syntax-ns#"
   xmlns:svg="http://www.w3.org/2000/svg"
   xmlns="http://www.w3.org/2000/svg"
   xmlns:sodipodi="http://sodipodi.sourceforge.net/DTD/sodipodi-0.dtd"
   xmlns:inkscape="http://www.inkscape.org/namespaces/inkscape"
   version="1.1"
   id="Layer_1"
   x="0px"
   y="0px"
   viewBox="0 0 393.70001 78.426285"
   enable-background="new 0 0 400 400"
   xml:space="preserve"
   inkscape:version="0.91 r13725"
   sodipodi:docname="browsersync.svg"
   width="393.70001"
   height="78.426285"><metadata
     id="metadata37"><rdf:RDF><cc:Work
         rdf:about=""><dc:format>image/svg+xml</dc:format><dc:type
           rdf:resource="http://purl.org/dc/dcmitype/StillImage" /></cc:Work></rdf:RDF></metadata><defs
     id="defs35" /><sodipodi:namedview
     pagecolor="#ffffff"
     bordercolor="#666666"
     borderopacity="1"
     objecttolerance="10"
     gridtolerance="10"
     guidetolerance="10"
     inkscape:pageopacity="0"
     inkscape:pageshadow="2"
     inkscape:window-width="454"
     inkscape:window-height="424"
     id="namedview33"
     showgrid="false"
     inkscape:zoom="0.59"
     inkscape:cx="196.9"
     inkscape:cy="29.2"
     inkscape:window-x="0"
     inkscape:window-y="0"
     inkscape:window-maximized="0"
     inkscape:current-layer="Layer_1" /><g
     id="g3"
     transform="translate(-3.1,-150.77371)"><path
       d="M 27.3,150.9 3.7,162.7 c -0.4,0.2 -0.6,0.6 -0.6,1 l 0,52 c 0,0.4 0.2,0.8 0.6,1 l 23.6,11.8 c 0.8,0.4 1.7,-0.2 1.7,-1 L 29,152 c 0,-0.9 -0.9,-1.5 -1.7,-1.1 z"
       id="path5"
       inkscape:connector-curvature="0"
       style="fill:#f24747" /><path
       d="m 32.3,228.5 23.6,-11.8 c 0.4,-0.2 0.6,-0.6 0.6,-1 l 0,-25.3 c 0,-0.4 -0.2,-0.8 -0.6,-1 L 32.3,177.6 c -0.8,-0.4 -1.7,0.2 -1.7,1 l 0,48.8 c 0,0.9 0.9,1.5 1.7,1.1 z"
       id="path7"
       inkscape:connector-curvature="0"
       style="fill:#f24747" /><g
       id="g9"><path
         d="m 98.3,176.3 c 7.9,0 12.2,3 12.2,10.4 0,4.8 -1.5,7.2 -4.7,9 3.4,1.3 5.7,3.8 5.7,9.3 0,8.2 -5,11.3 -12.7,11.3 l -15.6,0 0,-39.9 15.1,0 z m -8.7,5.6 0,11.4 8.6,0 c 4,0 5.7,-2 5.7,-5.9 0,-3.8 -2,-5.5 -5.9,-5.5 l -8.4,0 z m 0,16.9 0,11.8 8.8,0 c 4,0 6.4,-1.3 6.4,-6.1 0,-4.5 -3.4,-5.8 -6.5,-5.8 l -8.7,0 z"
         id="path11"
         inkscape:connector-curvature="0"
         style="fill:#f24747" /><path
         d="m 118.1,187.1 6.3,0 0,3.5 c 0,0 5,-3.2 9.9,-4.1 l 0,6.4 c -5.3,1 -9.8,4.6 -9.8,4.6 l 0,18.8 -6.4,0 0,-29.2 z"
         id="path13"
         inkscape:connector-curvature="0"
         style="fill:#f24747" /><path
         d="m 271.4,187.1 6.3,0 0,3.5 c 0,0 5,-3.2 9.9,-4.1 l 0,6.4 c -5.3,1 -9.8,4.6 -9.8,4.6 l 0,18.8 -6.4,0 0,-29.2 z"
         id="path15"
         inkscape:connector-curvature="0"
         style="fill:#f24747" /><path
         d="m 163.5,201.5 c 0,9.7 -3,15.4 -13,15.4 -10,0 -13,-5.7 -13,-15.4 0,-9.4 3.3,-15 13,-15 9.7,0 13,5.6 13,15 z m -6.5,0 c 0,-6.8 -1.5,-9.7 -6.6,-9.7 -5.1,0 -6.6,2.9 -6.6,9.7 0,6.8 1.2,10 6.6,10 5.5,0 6.6,-3.2 6.6,-10 z"
         id="path17"
         inkscape:connector-curvature="0"
         style="fill:#f24747" /><path
         d="m 173.7,187.1 4.6,23.7 1.2,0 5.5,-23.1 6.5,0 5.5,23.1 1.2,0 4.5,-23.7 6.3,0 -6.2,29.1 -10.1,0 -4.5,-20 -4.5,20 -10.1,0 -6.2,-29.1 6.3,0 z"
         id="path19"
         inkscape:connector-curvature="0"
         style="fill:#f24747" /><path
         d="m 234.7,193.1 c 0,0 -6.9,-0.9 -10.4,-0.9 -3.5,0 -5.1,0.8 -5.1,3.2 0,1.9 1.2,2.4 6.9,3.4 7,1.2 9.5,3 9.5,8.8 0,6.8 -4.3,9.3 -11.5,9.3 -4,0 -10.8,-1.3 -10.8,-1.3 l 0.2,-5.3 c 0,0 7,0.9 10,0.9 4.2,0 5.8,-0.9 5.8,-3.4 0,-2 -1,-2.7 -6.8,-3.6 -6.4,-1 -9.7,-2.4 -9.7,-8.6 0,-6.6 5.1,-9 10.9,-9 4.3,0 11,1.3 11,1.3 l 0,5.2 z"
         id="path21"
         inkscape:connector-curvature="0"
         style="fill:#f24747" /><path
         d="m 264.2,210.8 0.1,4.7 c 0,0 -6.6,1.3 -11.8,1.3 -8.7,0 -12.1,-4.7 -12.1,-14.9 0,-10.7 4.6,-15.5 12.6,-15.5 8.2,0 12.2,4.3 12.2,13.3 l -0.4,4.5 -18.1,0 c 0.1,4.7 1.8,7 6.6,7 4.8,0.2 10.9,-0.4 10.9,-0.4 z m -5.1,-11.3 c 0,-5.8 -1.7,-7.7 -6,-7.7 -4.3,0 -6.2,2.2 -6.3,7.7 l 12.3,0 z"
         id="path23"
         inkscape:connector-curvature="0"
         style="fill:#f24747" /><path
         d="m 311.8,190.7 c 0,0 -6.2,-0.9 -10.1,-0.9 -3.6,0 -6.9,1 -6.9,5 0,3 1.5,3.9 7.8,5 7.5,1.2 10.3,2.6 10.3,8.2 0,6.8 -4.3,9 -11.2,9 -3.6,0 -10,-1 -10,-1 l 0.2,-3.1 c 0,0 6.5,1 9.5,1 5,0 7.9,-1.2 7.9,-5.7 0,-3.5 -1.7,-4.3 -8.3,-5.2 -6.7,-1 -9.8,-2.3 -9.8,-7.9 0,-6.4 5.2,-8.2 10.3,-8.2 4.4,0 10.3,1 10.3,1 l 0,2.8 z"
         id="path25"
         inkscape:connector-curvature="0"
         style="fill:#f24747" /><path
         d="m 320.3,187.1 7.7,26.1 2.1,0 7.8,-26.1 3.6,0 -12.4,42.1 -3.5,0 3.8,-13 -4,0 -8.6,-29.1 3.5,0 z"
         id="path27"
         inkscape:connector-curvature="0"
         style="fill:#f24747" /><path
         d="m 347.4,216.3 0,-29.1 3.4,0 0,2.2 c 0,0 4.9,-2.7 9.5,-2.7 8,0 9.7,3.7 9.7,14.4 l 0,15.3 -3.5,0 0,-15.1 c 0,-8.6 -0.9,-11.4 -6.8,-11.4 -4.5,0 -9,2.4 -9,2.4 l 0,24.1 -3.3,0 z"
         id="path29"
         inkscape:connector-curvature="0"
         style="fill:#f24747" /><path
         d="m 396.8,187.3 -0.2,3 c 0,0 -4.6,-0.6 -6.8,-0.6 -7,0 -9,3.1 -9,11.5 0,9.1 1.4,12.5 9,12.5 2.2,0 6.9,-0.5 6.9,-0.5 l 0.1,3 c 0,0 -5.2,0.7 -7.7,0.7 -9.4,0 -12,-4.2 -12,-15.7 0,-10.7 3.4,-14.6 12.1,-14.6 2.6,-0.1 7.6,0.7 7.6,0.7 z"
         id="path31"
         inkscape:connector-curvature="0"
         style="fill:#f24747" /></g></g></svg>