<svg id="TRIMM_WORDMARK_TAGLINE" data-name="TRIMM WORDMARK + TAGLINE" xmlns="http://www.w3.org/2000/svg" viewBox="0 0 818.74515 236.48288"><defs><style>.cls-1{fill:#fff;}</style></defs><title>Logo-TRIMM</title><rect id="WHITESPACE" class="cls-1" width="818.74515" height="236.48288"/><g id="TAGLINE"><path id="P" class="cls-1" d="M763.5777,180.72956h6.8054a7.91018,7.91018,0,0,1,5.03631,1.49954,5.149,5.149,0,0,1,1.9294,4.23334v.05391a5.27621,5.27621,0,0,1-2.19753,4.47451,8.32252,8.32252,0,0,1-5.11717,1.49954h-5.06326v6.99267H763.5777Zm6.53727,10.47552a6.66633,6.66633,0,0,0,4.23192-1.25979,4.03678,4.03678,0,0,0,1.60878-3.34808v-.05391a4.004,4.004,0,0,0-1.58183-3.37645,6.57718,6.57718,0,0,0-4.09856-1.152h-5.30444v9.1902Z"/><path id="I" class="cls-1" d="M731.873,180.72956h1.39314v18.75351H731.873Z"/><path id="H" class="cls-1" d="M687.05684,180.72956H688.45V189.409h12.002v-8.67947h1.39314v18.75351H700.452v-8.78729H688.45v8.78729h-1.39314Z"/><path id="S" class="cls-1" d="M649.44688,196.7507l.91079-1.04557a9.70269,9.70269,0,0,0,6.72454,2.78628,5.31251,5.31251,0,0,0,3.42895-1.0711,3.24888,3.24888,0,0,0,1.3137-2.65293v-.05249a2.94643,2.94643,0,0,0-1.04557-2.41175,10.243,10.243,0,0,0-4.25887-1.58041,10.80146,10.80146,0,0,1-4.849-1.9294,4.084,4.084,0,0,1-1.474-3.34808v-.05391a4.38548,4.38548,0,0,1,1.71518-3.50981,6.53519,6.53519,0,0,1,4.31278-1.4201,10.00331,10.00331,0,0,1,6.42945,2.277l-.88384,1.09948a8.29093,8.29093,0,0,0-5.59952-2.11667,5.10274,5.10274,0,0,0-3.32254,1.04415,3.04894,3.04894,0,0,0-1.25837,2.4912v.05391a2.94512,2.94512,0,0,0,1.0711,2.43871,10.287,10.287,0,0,0,4.39365,1.65985,10.87757,10.87757,0,0,1,4.71569,1.90245,4.033,4.033,0,0,1,1.44705,3.26864v.05391a4.59706,4.59706,0,0,1-1.74214,3.69708,6.85026,6.85026,0,0,1-4.47309,1.4201A11.02713,11.02713,0,0,1,649.44688,196.7507Z"/><path id="N" class="cls-1" d="M610.41753,180.72956h1.31228l12.93977,16.31622V180.72956h1.34065v18.75351h-1.04557l-13.2079-16.6638v16.6638h-1.33923Z"/><path id="A" class="cls-1" d="M579.425,180.59621h1.33923l8.7348,18.88687h-1.52792l-2.38338-5.25053H574.522l-2.38338,5.25053H570.6916Zm5.57257,12.37655-4.92991-10.85005-4.95544,10.85005Z"/><path id="M" class="cls-1" d="M533.13555,180.72956h1.31228l7.52893,11.09123,7.52751-11.09123h1.3137v18.75351h-1.39314V183.19381l-7.42111,10.79756h-.10782l-7.42111-10.79756v16.28927h-1.33923Z"/><path id="S-2" data-name="S" class="cls-1" d="M496.97264,196.7507l.91079-1.04557a9.70269,9.70269,0,0,0,6.72454,2.78628,5.31251,5.31251,0,0,0,3.42895-1.0711,3.24888,3.24888,0,0,0,1.3137-2.65293v-.05249a2.94643,2.94643,0,0,0-1.04557-2.41175,10.243,10.243,0,0,0-4.25887-1.58041,10.80146,10.80146,0,0,1-4.849-1.9294,4.084,4.084,0,0,1-1.474-3.34808v-.05391a4.38548,4.38548,0,0,1,1.71518-3.50981,6.53519,6.53519,0,0,1,4.31278-1.4201,10.00331,10.00331,0,0,1,6.42945,2.277l-.88384,1.09948a8.29093,8.29093,0,0,0-5.59952-2.11667,5.10274,5.10274,0,0,0-3.32254,1.04415,3.04894,3.04894,0,0,0-1.25837,2.4912v.05391a2.94512,2.94512,0,0,0,1.0711,2.43871A10.287,10.287,0,0,0,504.581,189.409a10.87757,10.87757,0,0,1,4.71569,1.90245,4.033,4.033,0,0,1,1.44705,3.26864v.05391a4.59706,4.59706,0,0,1-1.74214,3.69708,6.85026,6.85026,0,0,1-4.47309,1.4201A11.02713,11.02713,0,0,1,496.97264,196.7507Z"/><path id="T" class="cls-1" d="M465.04377,182.01488H458.5065v-1.28532h14.46626v1.28532h-6.53585v17.46819h-1.39314Z"/><path id="F" class="cls-1" d="M421.01713,180.72956H434.225v1.28532H422.41027v7.68924h10.60888v1.28674H422.41027v8.49221h-1.39314Z"/><path id="A-2" data-name="A" class="cls-1" d="M388.83255,180.59621h1.33994l8.73338,18.88687h-1.5265l-2.3848-5.25053H383.9303l-2.3848,5.25053h-1.44634Zm5.57257,12.37655-4.9292-10.85005-4.95615,10.85005Z"/><path id="R" class="cls-1" d="M343.74863,180.72956h7.8765a7.13774,7.13774,0,0,1,5.27748,1.84854,4.73471,4.73471,0,0,1,1.4201,3.48286v.05391a4.77556,4.77556,0,0,1-1.55345,3.69708,7.18992,7.18992,0,0,1-3.93825,1.66127l6.18828,8.00986H357.2509l-5.97405-7.76868h-6.13507v7.76868h-1.39314Zm7.71548,9.725a6.35218,6.35218,0,0,0,3.912-1.125,3.76718,3.76718,0,0,0,1.55345-3.16223v-.05249a3.58691,3.58691,0,0,0-1.4201-3.0005,6.34433,6.34433,0,0,0-3.9645-1.09948h-6.40321v8.43972Z"/><path id="C" class="cls-1" d="M307.53216,196.99187a9.47643,9.47643,0,0,1-2.65222-6.83236v-.05391a9.59285,9.59285,0,0,1,2.65222-6.83094,8.87157,8.87157,0,0,1,6.72454-2.86715,10.52853,10.52853,0,0,1,7.287,3.0005l-.99095,1.01861a8.877,8.877,0,0,0-6.323-2.75933,7.37191,7.37191,0,0,0-5.62577,2.41175,8.42428,8.42428,0,0,0-2.277,5.97405v.05249a8.464,8.464,0,0,0,2.277,6.00243,7.477,7.477,0,0,0,5.65272,2.43729,9.08335,9.08335,0,0,0,6.45641-2.91964l.93775.91079a10.37713,10.37713,0,0,1-7.44735,3.26864A8.83587,8.83587,0,0,1,307.53216,196.99187Z"/><path id="L" class="cls-1" d="M252.89815,181.0516h1.39314v17.46819h11.01107v1.28532H252.89815Z"/><path id="A-3" data-name="A" class="cls-1" d="M223.41582,180.91825h1.33994l8.73338,18.88687h-1.5265l-2.3848-5.25053H218.51358l-2.3848,5.25053h-1.44634Zm5.57257,12.37655-4.9292-10.85005L219.103,193.2948Z"/><path id="T-2" data-name="T" class="cls-1" d="M188.37441,182.33692h-6.53656V181.0516h14.467v1.28532h-6.53727v17.46819h-1.39314Z"/><path id="I-2" data-name="I" class="cls-1" d="M153.3603,181.0516h1.39314v18.75351H153.3603Z"/><path id="G" class="cls-1" d="M113.13539,196.96492a9.66153,9.66153,0,0,1-2.49191-6.8054v-.05391a9.71336,9.71336,0,0,1,2.54511-6.75007,8.65231,8.65231,0,0,1,6.72454-2.948,10.43847,10.43847,0,0,1,6.8586,2.46566l-.91079,1.04415a8.86788,8.86788,0,0,0-6.028-2.25,7.155,7.155,0,0,0-5.57257,2.4912,8.55637,8.55637,0,0,0-2.16987,5.89461v.05249a8.58839,8.58839,0,0,0,2.14291,6.05492,7.58367,7.58367,0,0,0,5.8939,2.41175,8.98317,8.98317,0,0,0,5.97476-2.14362v-5.3853H119.833V189.758h7.60837v7.23384a10.73828,10.73828,0,0,1-7.3672,2.81324A9.00255,9.00255,0,0,1,113.13539,196.96492Z"/><path id="I-3" data-name="I" class="cls-1" d="M83.33138,181.0516h1.39314v18.75351H83.33138Z"/><path id="D" class="cls-1" d="M41.02987,181.0516h6.24219a10.08928,10.08928,0,0,1,7.20689,2.67846,8.83709,8.83709,0,0,1,2.75933,6.64509v.05249a8.868,8.868,0,0,1-2.75933,6.672,10.03,10.03,0,0,1-7.20689,2.70542H41.02987Zm1.39314,1.28532v16.18286h4.849a8.51527,8.51527,0,0,0,6.21523-2.33089,7.69256,7.69256,0,0,0,2.30393-5.70734v-.05391a7.69159,7.69159,0,0,0-2.30393-5.70592,8.41008,8.41008,0,0,0-6.21523-2.3848Z"/></g><g id="WORDMARK"><path id="M-2" data-name="M" class="cls-1" d="M640.36264,40.67777h42.41707L708.855,83.44241l26.07673-42.76464h42.41707V162.36633H736.84413V102.04271L708.855,145.32942h-.69515l-27.98769-43.28672v60.32363H640.36264Z"/><path id="M-3" data-name="M" class="cls-1" d="M488.8492,40.67777h42.41707l26.07531,42.76464,26.07673-42.76464h42.41707V162.36633H585.33069V102.04271l-27.98911,43.28672h-.69515l-27.98769-43.28672v60.32363H488.8492Z"/><path id="I-4" data-name="I" class="cls-1" d="M433.64417,40.67777h40.67777V162.36633H433.64417Z"/><path id="R-2" data-name="R" class="cls-1" d="M304.71467,40.67777h59.45327q29.89865,0,43.80879,13.9073,11.12315,11.1274,11.12528,28.85734V83.79q0,25.55536-23.98985,37.202l28.33668,41.37434H377.03252l-22.94712-34.769h-8.69153v34.769H304.71467Zm58.236,57.88917q15.64731,0,15.6466-11.82185v-.34758q0-11.64451-15.47211-11.64735H345.39386V98.56694Z"/><path id="T-3" data-name="T" class="cls-1" d="M213.69652,75.09775h-35.811v-34.42H290.1874v34.42H254.3757v87.26858H213.69652Z"/></g><g id="LOGO"><rect id="_0d709a" data-name="0d709a" class="cls-1" x="41.02987" y="40.03794" width="122.32838" height="122.32838"/><path class="cls-1" d="M122.12911,84.62493c-5.1352,0-9.606,5.75191-12.94761,11.99965l.00594.01681c-4.2728-11.34878-10.12807-22.83471-19.49666-22.83471-18.181.3666-31.06036,48.1354-32.6059,54.7534H92.04843c10.78465-.08436,13.20543-8.489,13.20543-8.489l-2.42078-7.893s-3.24347,8.2932-10.78465,8.2932h-23.757c2.16744-6.94421,12.00645-38.01258,21.39937-38.01258,8.62628,0,15.88714,27.68774,18.15282,33.82711,2.30356,6.242,7.38539,12.29066,15.94884,12.27431h23.51079C140.4111,105.50862,131.6969,84.62493,122.12911,84.62493Zm0,8.267c5.57993,0,14.59057,27.57935,14.59057,27.57935H125.64251c-5.04021,0-8.41881-1.18661-10.94263-8.32594l-2.41-6.71964C115.72865,99.00045,119.64993,92.8919,122.12911,92.8919Z"/></g></svg>