<?xml version="1.0" encoding="UTF-8" standalone="no"?>
<svg
   xmlns:dc="http://purl.org/dc/elements/1.1/"
   xmlns:cc="http://creativecommons.org/ns#"
   xmlns:rdf="http://www.w3.org/1999/02/22-rdf-syntax-ns#"
   xmlns:svg="http://www.w3.org/2000/svg"
   xmlns="http://www.w3.org/2000/svg"
   xmlns:sodipodi="http://sodipodi.sourceforge.net/DTD/sodipodi-0.dtd"
   xmlns:inkscape="http://www.inkscape.org/namespaces/inkscape"
   version="1.1"
   id="TRIMM_WORDMARK__x2B__TAGLINE"
   x="0"
   y="0"
   viewBox="0 0 735.70001 161.3"
   xml:space="preserve"
   inkscape:version="0.91 r13725"
   sodipodi:docname="logo.svg"
   width="735.70001"
   height="161.3"><metadata
     id="metadata3388"><rdf:RDF><cc:Work
         rdf:about=""><dc:format>image/svg+xml</dc:format><dc:type
           rdf:resource="http://purl.org/dc/dcmitype/StillImage" /></cc:Work></rdf:RDF></metadata><defs
     id="defs3386" /><sodipodi:namedview
     pagecolor="#ffffff"
     bordercolor="#666666"
     borderopacity="1"
     objecttolerance="10"
     gridtolerance="10"
     guidetolerance="10"
     inkscape:pageopacity="0"
     inkscape:pageshadow="2"
     inkscape:window-width="446"
     inkscape:window-height="420"
     id="namedview3384"
     showgrid="false"
     inkscape:zoom="0.31501832"
     inkscape:cx="367.8"
     inkscape:cy="83.75"
     inkscape:window-x="0"
     inkscape:window-y="0"
     inkscape:window-maximized="0"
     inkscape:current-layer="TRIMM_WORDMARK__x2B__TAGLINE" /><style
     type="text/css"
     id="style3366">.st0{fill:#46413c}.st1,.st2{display:none;fill:#f69227}.st2{fill:#46413c}.st3,.st4,.st5{display:none;fill:#d51d4d}.st4,.st5{fill:#f6cd2c}.st5{fill:#bbcc32}.st6{fill:#0d709a}.st7{fill:#fff}</style><g
     id="WORDMARK"
     transform="translate(-41.7,-40.7)"><path
       id="M_2_"
       class="st0"
       d="m 640.4,40.7 42.4,0 26.1,42.8 26.1,-42.8 42.4,0 0,121.7 -40.5,0 0,-60.4 -28,43.3 -0.7,0 -28,-43.3 0,60.3 -39.8,0 0,-121.6 z"
       inkscape:connector-curvature="0"
       style="fill:#46413c" /><path
       id="M"
       class="st0"
       d="m 488.8,40.7 42.4,0 26.1,42.8 26.1,-42.8 42.4,0 0,121.7 -40.5,0 0,-60.4 -28,43.3 -0.7,0 -28,-43.3 0,60.3 -39.8,0 0,-121.6 z"
       inkscape:connector-curvature="0"
       style="fill:#46413c" /><path
       id="I"
       class="st0"
       d="m 433.6,40.7 40.7,0 0,121.7 -40.7,0 0,-121.7 z"
       inkscape:connector-curvature="0"
       style="fill:#46413c" /><path
       id="R"
       class="st0"
       d="m 304.7,40.7 59.5,0 c 19.9,0 34.5,4.6 43.8,13.9 7.4,7.4 11.1,17 11.1,28.9 l 0,0.3 c 0,17 -8,29.4 -24,37.2 l 28.3,41.4 -46.4,0 -22.9,-34.8 -8.7,0 0,34.8 -40.7,0 0,-121.7 z M 363,98.6 c 10.4,0 15.6,-3.9 15.6,-11.8 l 0,-0.3 c 0,-7.8 -5.2,-11.6 -15.5,-11.6 l -17.7,0 0,23.8 17.6,0 z"
       inkscape:connector-curvature="0"
       style="fill:#46413c" /><path
       id="T"
       class="st0"
       d="m 213.7,75.1 -35.8,0 0,-34.4 112.3,0 0,34.4 -35.8,0 0,87.3 -40.7,0 0,-87.3 z"
       inkscape:connector-curvature="0"
       style="fill:#46413c" /></g><path
     id="f69227"
     class="st1"
     d="m 0,0 121.7,0 0,121.7 -121.7,0 z"
     inkscape:connector-curvature="0"
     style="display:none;fill:#f69227" /><path
     id="_x34_6413c"
     class="st2"
     d="m 0,0 121.7,0 0,121.7 -121.7,0 z"
     inkscape:connector-curvature="0"
     style="display:none;fill:#46413c" /><path
     id="d71c4c"
     class="st3"
     d="m 0,0 121.7,0 0,121.7 -121.7,0 z"
     inkscape:connector-curvature="0"
     style="display:none;fill:#d51d4d" /><path
     id="f7ce2b"
     class="st4"
     d="m 0,0 121.7,0 0,121.7 -121.7,0 z"
     inkscape:connector-curvature="0"
     style="display:none;fill:#f6cd2c" /><path
     id="becd00"
     class="st5"
     d="m 0,0 121.7,0 0,121.7 -121.7,0 z"
     inkscape:connector-curvature="0"
     style="display:none;fill:#bbcc32" /><path
     id="_x30_d709a"
     class="st6"
     d="m 0,0 121.7,0 0,121.7 -121.7,0 z"
     inkscape:connector-curvature="0"
     style="fill:#0d709a" /><path
     class="st7"
     d="M 80.6,44.3 C 75.5,44.3 71,50 67.7,56.2 63.4,44.9 57.6,33.5 48.3,33.5 30.2,33.9 17.4,81.4 15.9,88 l 34.8,0 c 10.7,-0.1 13.1,-8.4 13.1,-8.4 l -2.4,-7.9 c 0,0 -3.2,8.2 -10.7,8.2 l -23.6,0 C 29.3,73 39,42.1 48.4,42.1 57,42.1 64.2,69.6 66.5,75.8 68.8,82 73.8,88 82.4,88 l 23.4,0 C 98.8,65.1 90.2,44.3 80.6,44.3 Z m 0,8.3 c 5.6,0 14.5,27.4 14.5,27.4 l -11,0 c -5,0 -8.4,-1.2 -10.9,-8.3 L 70.8,65 c 3.5,-6.4 7.4,-12.4 9.8,-12.4 z"
     id="path3380"
     inkscape:connector-curvature="0"
     style="fill:#ffffff" /><path
     class="st0"
     d="m 0,141.4 6.6,0 c 6.2,0 10.5,4.3 10.5,9.8 l 0,0.1 c 0,5.6 -4.3,9.9 -10.5,9.9 l -6.6,0 0,-19.8 z m 1.4,1.4 0,17.1 5.1,0 c 5.5,0 9,-3.8 9,-8.5 l 0,-0.1 c 0,-4.7 -3.5,-8.5 -9,-8.5 l -5.1,0 z m 39.6,-1.4 1.5,0 0,19.8 -1.5,0 0,-19.8 z m 26,10 c 0,-5.2 3.7,-9.9 9.5,-9.9 3.1,0 5.1,0.9 7,2.5 l -0.9,1.1 c -1.5,-1.3 -3.3,-2.3 -6.1,-2.3 -4.6,0 -7.9,3.9 -7.9,8.5 l 0,0.1 c 0,4.9 3.1,8.6 8.2,8.6 2.4,0 4.7,-1 6.1,-2.2 l 0,-5.5 -6.6,0 0,-1.3 7.8,0 0,7.4 c -1.7,1.5 -4.4,2.9 -7.5,2.9 -6,-0.1 -9.6,-4.5 -9.6,-9.9 z m 41.7,-10 1.5,0 0,19.8 -1.5,0 0,-19.8 z m 32.1,1.4 -6.9,0 0,-1.4 15.3,0 0,1.4 -6.9,0 0,18.4 -1.5,0 0,-18.4 z m 36.6,-1.4 1.4,0 9.1,19.8 -1.6,0 -2.5,-5.5 -11.5,0 -2.5,5.5 -1.5,0 9.1,-19.8 z m 5.8,13 -5.2,-11.4 -5.2,11.4 10.4,0 z m 27.9,-13 1.5,0 0,18.4 11.6,0 0,1.4 -13.1,0 0,-19.8 z m 51.9,10 c 0,-5.5 4,-9.9 9.6,-9.9 3.4,0 5.5,1.3 7.4,3.1 l -1,1 c -1.7,-1.6 -3.6,-2.8 -6.4,-2.8 -4.6,0 -8.1,3.7 -8.1,8.5 l 0,0.1 c 0,4.8 3.5,8.6 8.1,8.6 2.8,0 4.6,-1.1 6.6,-3 l 1,0.9 c -2,2 -4.2,3.3 -7.6,3.3 -5.5,0 -9.6,-4.3 -9.6,-9.8 z m 40.3,-10 8.3,0 c 2.4,0 4.4,0.8 5.6,1.9 0.9,0.9 1.5,2.3 1.5,3.7 l 0,0.1 c 0,3.3 -2.5,5.2 -5.8,5.6 l 6.5,8.4 -1.9,0 -6.3,-8.2 -6.5,0 0,8.2 -1.4,0 0,-19.7 z m 8.1,10.3 c 3.3,0 5.8,-1.7 5.8,-4.5 l 0,-0.1 c 0,-2.7 -2.1,-4.3 -5.7,-4.3 l -6.8,0 0,8.9 6.7,0 z m 38.3,-10.2 1.4,0 9.1,19.7 -1.6,0 -2.5,-5.5 -11.6,0 -2.5,5.5 -1.5,0 9.2,-19.7 z m 5.9,12.9 -5.2,-11.3 -5.2,11.3 10.4,0 z m 27.5,-13 13.9,0 0,1.4 -12.5,0 0,8.1 11.2,0 0,1.4 -11.2,0 0,9 -1.5,0 0,-19.9 z m 42.6,1.4 -6.9,0 0,-1.4 15.3,0 0,1.4 -6.9,0 0,18.4 -1.5,0 0,-18.4 z m 29.9,15.3 0.9,-1.1 c 2.1,2 4.1,2.9 6.9,2.9 2.9,0 4.9,-1.6 4.9,-3.8 l 0,-0.1 c 0,-2 -1.1,-3.2 -5.4,-4.1 -4.6,-0.9 -6.5,-2.5 -6.5,-5.4 l 0,-0.1 c 0,-2.9 2.6,-5.1 6.2,-5.1 2.8,0 4.6,0.8 6.6,2.3 l -0.9,1.1 c -1.8,-1.6 -3.6,-2.2 -5.7,-2.2 -2.8,0 -4.7,1.6 -4.7,3.6 l 0,0.1 c 0,2 1,3.3 5.6,4.2 4.4,0.9 6.3,2.5 6.3,5.3 l 0,0.1 c 0,3.1 -2.7,5.2 -6.4,5.2 -3.1,0.2 -5.5,-0.8 -7.8,-2.9 z m 37.7,-16.7 1.4,0 7.9,11.7 7.9,-11.7 1.4,0 0,19.8 -1.5,0 0,-17.2 -7.8,11.4 -0.1,0 -7.8,-11.4 0,17.2 -1.4,0 0,-19.8 z m 50.5,0.1 1.4,0 9.1,19.7 -1.6,0 -2.5,-5.5 -11.6,0 -2.5,5.5 -1.5,0 9.2,-19.7 z m 5.8,12.9 -5.2,-11.3 -5.2,11.3 10.4,0 z m 27.6,-13 1.4,0 13.6,17.2 0,-17.2 1.4,0 0,19.8 -1.1,0 -13.9,-17.6 0,17.6 -1.4,0 0,-19.8 z m 39.8,16.7 0.9,-1.1 c 2.1,2 4.1,2.9 6.9,2.9 2.9,0 4.9,-1.6 4.9,-3.8 l 0,-0.1 c 0,-2 -1.1,-3.2 -5.4,-4.1 -4.6,-0.9 -6.5,-2.5 -6.5,-5.4 l 0,-0.1 c 0,-2.9 2.6,-5.1 6.2,-5.1 2.8,0 4.6,0.8 6.6,2.3 l -0.9,1.1 c -1.8,-1.6 -3.6,-2.2 -5.7,-2.2 -2.8,0 -4.7,1.6 -4.7,3.6 l 0,0.1 c 0,2 1,3.3 5.6,4.2 4.4,0.9 6.3,2.5 6.3,5.3 l 0,0.1 c 0,3.1 -2.7,5.2 -6.4,5.2 -3.1,0.2 -5.5,-0.8 -7.8,-2.9 z m 37.7,-16.7 1.5,0 0,9.2 12.7,0 0,-9.2 1.5,0 0,19.8 -1.5,0 0,-9.3 -12.7,0 0,9.3 -1.5,0 0,-19.8 z m 40.2,0 1.5,0 0,19.8 -1.5,0 0,-19.8 z m 26.2,0 7.2,0 c 4.4,0 7.3,2.2 7.3,6 l 0,0.1 c 0,4.2 -3.6,6.3 -7.7,6.3 l -5.3,0 0,7.4 -1.5,0 0,-19.8 z m 6.9,11.1 c 3.7,0 6.2,-1.9 6.2,-4.9 l 0,-0.1 c 0,-3.1 -2.4,-4.8 -6,-4.8 l -5.6,0 0,9.7 5.4,0 z"
     id="path3382"
     inkscape:connector-curvature="0"
     style="fill:#46413c" /></svg>